<?xml version="1.0" encoding="utf-8"?>
<!-- Generator: Adobe Illustrator 16.0.4, SVG Export Plug-In . SVG Version: 6.00 Build 0)  -->
<!DOCTYPE svg PUBLIC "-//W3C//DTD SVG 1.1//EN" "http://www.w3.org/Graphics/SVG/1.1/DTD/svg11.dtd">
<svg version="1.1" id="Layer_1" xmlns="http://www.w3.org/2000/svg" xmlns:xlink="http://www.w3.org/1999/xlink" x="0px" y="0px"
	 width="100px" height="51px" viewBox="0 0 100 51" enable-background="new 0 0 100 51" xml:space="preserve">
<path fill="#23334A" d="M14.554,15.98l0.188,0.438c0.812,1.437,2.249,1.937,3.685,2.436c3.311,1.062,6.809,1.812,10.057,3.186
	c1.312,0.562,2.624,1.25,3.81,2.061c1.687,1.187,3.186,2.687,4.123,4.56c1.749,3.373,1.624,7.559-0.125,10.994
	c-1.687,3.373-4.81,5.996-8.308,7.494c-3.498,1.5-7.433,1.875-11.181,1.625C10.619,48.336,4.497,46.088,0,41.84l8.557-7.934
	c3.249,3.248,7.871,5.123,12.43,4.998c2.499-0.062,5.497-1.188,5.06-4.123c-0.062-0.25-0.125-0.438-0.188-0.562
	c-0.875-1.936-2.686-2.686-4.435-3.248c-2.749-0.936-5.622-1.498-8.37-2.436c-2.749-0.938-5.434-2.248-7.371-4.435
	c-2.061-2.186-3.123-5.184-3.123-8.182c0.062-2.999,1.25-5.997,3.311-8.183c2.186-2.499,5.309-3.998,8.557-4.872
	c3.998-1.125,8.245-1.187,12.305-0.375c4.185,0.812,8.183,2.624,11.556,5.31l-3.561,3.435c-1.562,1.562-3.248,3.124-4.872,4.685
	c-2.936-3.311-7.745-4.872-12.055-3.811C15.99,12.545,13.929,13.794,14.554,15.98z"/>
<path fill="#23334A" d="M64.711,21.415l16.865,25.796H68.896L57.527,29.848l-2.998,3.496v13.867H43.911V3.675h10.618v13.242
	L65.897,3.488h13.93L64.711,21.415z"/>
<path fill="#23334A" d="M87.197,3.55h10.619v43.536H87.197V3.55z"/>
<g>
	<path fill="#23334A" d="M64.706,23.345l11.876,17.63c0,0,0.637,1.196,2.104,0.878"/>
	
		<line fill="none" stroke="#23334A" stroke-width="0.3507" stroke-miterlimit="10" x1="71.486" y1="18.276" x2="83.218" y2="33.411"/>
	
		<line fill="none" stroke="#23334A" stroke-width="0.3507" stroke-miterlimit="10" x1="72.927" y1="18.071" x2="83.429" y2="33.134"/>
	
		<line fill="none" stroke="#23334A" stroke-width="0.3507" stroke-miterlimit="10" x1="72.729" y1="18.888" x2="73.686" y2="18.255"/>
	
		<line fill="none" stroke="#23334A" stroke-width="0.3507" stroke-miterlimit="10" x1="71.272" y1="19.152" x2="72.216" y2="18.454"/>
	<path fill="#23334A" d="M81.541,27.865l0.372,0.322c0,0-0.042,0.425,0.372,0.327s0.544-0.246,0.73-0.081
		c0.186,0.162,1.003,0.354,1.441,0.081c0.438-0.274,0.815-0.929,0.815-0.929s0.821-0.639,0.013-2.489c0,0-1.24-1.285-2.367-0.301
		c-1.126,0.984-0.523,0.595-0.523,0.595s-0.153-1.321-1.236-2.337c-1.082-1.015-1.551-1.756-2.43-1.803
		c-0.878-0.047-4.422-0.658-5.261,0.447c-0.839,1.106-0.594,1.65-0.242,2.749c0.354,1.098,0.727,2.545,1.215,3.04
		c0.486,0.491-2.53-0.116-2.713,0.314c-0.182,0.433-1.599,0.177-1.599,0.177s-1.183,0.147-1.405,0.474
		c-0.225,0.332,4.505,6.783,4.505,6.783s0.021-0.771-0.356-1.166c-0.376-0.397,0.143-1.062-0.054-1.362
		c-0.193-0.305-0.227-1.316-0.227-1.316l2.1-0.594l0.357-0.408c0,0,2.907-0.539,3.02-0.442c0.098,0.086,0.557-0.87,0.396-1.353
		c-0.024-0.067-0.059-0.127-0.11-0.172c-0.409-0.361-1.275-2.369-1.275-2.369l0.262-0.298l1.779,1.496c0,0-1.154,2.737-0.951,3.183
		c0.205,0.44,1.581,1.121,2.47,1.309c0.888,0.187,1.397,1.028,1.774,1.424c0.375,0.398,1.888-0.051,1.446-0.898
		c-0.439-0.848-0.894-1.379-1.188-1.57c-0.293-0.188-1.115-0.977-1.115-0.977s-0.683-0.272-0.827-0.331
		C80.586,29.326,81.169,27.538,81.541,27.865z"/>
</g>
</svg>
